<svg xmlns="http://www.w3.org/2000/svg" width="478.456" height="771.113" viewBox="0 0 478.456 771.113"><g fill-rule="evenodd" clip-rule="evenodd"><path fill="#030303" d="M291.214 18.456c16.3.13 17.244-17.163 30.4-18.4 10.397-.978 17.084 11.133 24.8 14.4 6.06 2.566 15.244 2.356 18.4 4.8 4.634 3.59 5.262 11.496 8 16 10.838 17.833 31.53 22.273 29.6 56-.942 16.466-7.37 33.83-13.6 47.2-2.148 4.61-5.925 9.515-6.4 13.6-.657 5.64 2.044 10.892 1.6 16-.524 6.04-2.577 13.413-7.2 17.6-5.467 4.952-12.182 3.33-18.4 6.4-7.785 3.844-9.096 11.74-14.4 18.4 41.03 21.03 84.157 51.06 112 90.4 9.63 13.605 23.282 29.735 22.4 48.8-.704 15.257-10.433 31.136-16.8 44.8-7.007 15.04-14.155 28.323-22.4 39.2-3.352 4.423-11.3 9.58-12 15.2-.742 5.967 4.446 10.498 4.8 16.8.693 12.304-6.2 18.56-12.8 26.4-11.885 1.446-26.103.56-39.2.8 21.58 51.126 34.256 118.617 44 185.6 2.232 15.334 6.335 31.033-1.6 40.8 1.718 5.715 5.327 6.136 6.4 11.2 2.718 12.81-3.15 27.722-7.2 32.8-17.015 21.35-66.637-4.288-63.2-35.2-23.564-15.822-27.338-58.082-39.2-87.2-11.028-27.077-22.812-50.17-33.6-72-5.34 2.42-6.276 9.48-8 14.4-12.412 35.448-21.728 80.122-24 127.2-7.65.213-6.13 9.452-9.6 15.2-4.728 7.837-24.745 15.42-28.8 4-14.743 4.62-32.072 10.362-52.8 10.4-11.43.02-33.75-1.956-34.4-12.8-.908-15.172 31.223-20.285 40-27.2 2.18-73.556 13.55-137.918 20-207.2 1.825-1.11.3-5.57.8-8v-38.4c-.515-3.484 1.044-9.044-.8-11.2.358-24.356-2.116-45.883-2.4-69.6v-12-8-10.4c-.023-15.224 2.067-28.333 2.4-43.2-26.668 5.884-59.866 18.39-96 16.8-11.27-.495-20.864-3.75-32-5.6-9.4-1.56-18.8.06-27.2-2.4-11.22-3.288-19.417-8.688-25.6-18.4-1.876-7.01-.88-17.173 2.4-21.6-6.583-7-11.17-21.524-3.2-30.4-2.186-6.236-6.165-8.317-6.4-15.2-.63-18.524 19.22-24.47 38.4-25.6-4.984-14.558-11.228-31.775-.8-50.4 4.453-7.95 28.505-25.346 39.2-10.4 10.41 14.544-13.82 35.465-3.2 52.8 3.544 5.783 11.034 7.95 17.6 15.2 4.382 4.836 7.105 12.086 10.4 14.4 5.218 3.663 14.874 6.507 20.8 8 30.46 7.672 74.647 2.23 105.6 0-4.23-8.192-10.926-12.352-14.4-21.6-9.2-24.496-8.897-64.858 1.6-88.8 1.746-3.98 4.692-5.9 4.8-9.6.267-9.013-7.958-12.813-5.6-26.4.75-4.306 4.826-7.02 5.6-12 1.072-6.878-3.053-12.665-1.6-20 2.072-10.452 14.308-17.264 24-19.2 2.278 2.74-5.62 5.07-4 11.2 1.105 4.172 7.72 5.6 10.4 5.6 13.43 0 18.163-22.896 31.2-20h11.2zm103.2 59.2c-2.23-18.062-14.61-22.832-22.4-34.4-1.912-2.84-2.95-8.137-4.8-11.2-5.484-9.09-11.887-8.16-21.6-12-9.598-3.797-14.94-13.792-21.6-14.4-13.61-1.242-15.774 19.23-27.2 20-6.055.41-9.655-4.402-16-4-17.186 1.09-24.5 33.628-47.2 16.8-.83-2.105-.958-4.91-.8-8-16.834 9.348-12.52 44.883 7.2 44 15.553-.697 18.2-27.737 37.6-25.6 5.333.587 9.78 6.377 14.4 6.4 10.222.05 16.082-12.17 26.4-10.4 11.47 1.968 11.564 20.84 21.6 22.4 6.4.996 15.17-7.042 23.2-6.4 2.84.228 7.1 1.763 8.8 3.2 12.488 10.562 1.956 26.667-8.8 33.6 11.197 6.403 16.615 18.585 20.8 32 7.32-15.975 13.043-30.605 10.4-52zm-30.4 31.2c6.635 7.233 10.858 16.875 15.2 26.4 2.697-20.05-13.126-28.458-22.4-39.2 15.928-6.163 18.84-27.08.8-29.6-9.232-1.29-14.868 4.12-24 3.2-.176-.623-.67-.93-1.6-.8-7.008-8.962-13.025-16.598-24.8-15.2-5.703.678-9.915 5.208-16 4.8-7.66-.513-11.702-8.08-20-5.6-5.997 4.937-11.01 10.856-16 16.8-1.152.448-1.952 1.248-2.4 2.4-3.715 2.418-6.757 5.51-13.6 4.8-13.03 16.036-21.93 36.203-24.8 62.4-1.33 4.016-1.33 13.584 0 17.6-.293 42.433 34.404 78.942 68.8 82.4.863 2.337 7.138-.737 8 1.6-3.18-.248-4.02 1.848-7.2 1.6-2.702-.256-9.262-.257-6.4 2.4 1.904 2.363 5.442 3.09 9.6 3.2h2.4c13.064-1.068 22.305-5.962 29.6-12.8a22.15 22.15 0 0 0 5.6-5.6c2.21-2.59 5.115-4.484 4.8-9.6-4.684 1.194-9.69 6.293-16 3.2 7.746-3.988 14.14-9.328 20-15.2a22.128 22.128 0 0 0 5.6-5.6c5.626-4.51 8.72-11.55 13.602-16.8 22.254 3.196 27.89-20.58 18.4-35.2-.396-2.528 3.97-.297 3.2-3.2-1.332-8.536-5.73-14.005-10.4-19.2a54.623 54.623 0 0 0-8.8-8.8c-.897-3.237 2.455-3.956 4-2.4a16.246 16.246 0 0 0 4.8 4.8c5.637 6.096 8.323 15.143 13.6 21.6-1.882-18.385-13.82-26.713-21.6-39.2 1.183-.927 2.016-.927 3.2 0a16.243 16.243 0 0 0 4.798 4.8zm-140.8-39.2c-5.254 4.093-6.065 20.3 1.6 22.4 3.678-3.79 4.996-9.938 8.8-13.6-1.954-4.445-5.636-7.163-10.4-8.8zm-154.4 113.6c-7.392-16.346 4.156-30.526 3.2-48-2.52-2.86-3.982-5.39-7.2-5.6-29.3-1.912-34.167 43.203-19.2 63.2 9.284 1.65 15.43 6.436 22.4 10.4 2.03 3.036 5.127 5.006 7.2 8 3.97 7.406 2.705 21.206-4.8 24 7.168 7.01 10.27 23.628.8 30.4 13.083 22.777-20.96 27.932-42.4 24 2.148 7.082 14.816 7.36 21.6 7.2 24.587-.58 39.6-18.405 40.8-43.2-2.32-3.1-3.844 3.54-5.6.8 4.613-7.927 9.966-11.033 11.2-20 2.477-18.004-11.235-37.582-22.4-44.8-1.547-2.453-3.986-4.014-5.6-6.4zm-29.6 41.6c11.393.074 17.013 5.92 28 6.4.177-.624.67-.93 1.6-.8 13.88-28.938-36.264-42.823-56.8-28a7.2 7.2 0 0 0-3.2 3.2c-6.988 5.336-3.045 18.973 3.2 22.4 4.507-2.16 10.8-2.532 16.8-3.2h10.4zm235.2 179.2c1.19-32.246 3.924-64.7 8.8-94.4 1.498-9.113 2.857-22.896 7.2-27.2 4.725-4.68 20.015-6.333 27.2-9.6 20.785-9.448 35.196-24.767 39.2-50.4-5.87-2.93-11.395-6.205-18.4-8-10.04 18.227-20.017 36.516-45.6 39.2h-8c-10.044-2.247-17.605-3.147-24-8.8-6.27-5.544-7.467-17.64-18.4-16-15.365 15.567 5.56 29.667 6.4 40 .56 6.845-4.7 18.088-6.4 26.4-5.92 28.952-9.356 57.53-10.4 89.6-1.858 5.075-.272 13.595-.8 20-.62 1.78-.46 4.34-2.4 4.8-14.92 2.354-23.436-8.536-35.2-12-.256 9.29.042 19.65.8 29.6.75 9.814.564 22.096 4 28.8 3.335 6.505 17.027 11.5 25.6 15.2 12.388 5.348 24.31 8.625 37.6 8.8 4.81 1.858 13.06.274 19.2.802h4.8c6.14-.527 14.392 1.057 19.2-.8 20.306-1.296 41.63-1.57 53.6-11.2 1.925-4.344-1.102-10.616 0-16.8v-10.4c-.535-10.136 1.455-17.747 1.6-27.2-13.367 2.717-42.115 10.347-63.2 10.4-11.136.027-23.95-1.443-23.2-12 1.83-1.372.294-6.11.8-8.802zm-100.8-174.4c-25.662 1.12-50.93-2.388-68-7.2 2.117 8.55 6.503 14.83 6.4 25.6.454 18.3-6.79 34.792-16 44-3.77 3.77-10.008 5.113-12 10.4 17.86 2.19 37.328-.328 55.2-4 22.566-4.637 47.768-7.197 56.8-20.8-.67 14.017-5.512 37.672-4.8 58.4-1.332 9.604-1.332 24.795 0 34.4.014 7.188-.43 14.83 1.6 20 9.196 6.805 20.42 11.58 33.6 14.4v-24c1.844-2.157.285-7.716.8-11.2 1.528-27.927 4.76-52.384 10.4-76 1.83-7.66 6.457-17.646 5.6-24-.988-7.34-8.62-12.64-9.6-22.4-1.067-10.638 3.14-14.046 2.4-22.4-15.45.087-34.148 3.664-52 4-3.22.514-8.506-1.04-10.4.8zm294.4 101.6c-28.043-42.09-57.513-82.753-105.6-104.8-3.973 12.827-9.272 24.327-16.8 33.6a45.174 45.174 0 0 0-8 8c-11 8.467-24.826 14.107-42.4 16-9.754 25.273-16.8 76.012-16.8 112 0 14.29 2.005 27.27 17.6 24 2.428 1.33 10.372 1.33 12.8 0h4.8c17.633-2.367 34.355-5.645 47.2-12.8 3.315-23.884 8.57-45.828 15.2-66.4-7.838-6.562-18.967-9.833-25.6-17.6-.044-1.376.614-2.05 1.6-2.4 18.933 12.267 38.46 23.94 62.4 31.2-11.155 14.98-22.726 29.542-30.4 48-11.55 25.422 11.878 44.74 40.8 42.4 9.215-9.795 18.184-25.404 27.2-41.6 11.206-20.128 29.985-47.274 16-69.6zm-419.2-74.4c10.948 2.47 24.468 10.283 24.8-4.8.63-28.694-93.347-35.836-60.8 4.8 13.16-2.9 22.858-2.966 36 0zm46.4-8.8c-1.484 5.94-.35 11.966-1.6 16.8-2.824 10.916-8.942 21.238-17.6 28-2.695 2.104-6.435 1.385-8 6.4 13.606 5.014 23.198-6.5 30.4-18.4 8.845-14.616 12.288-37.284 4-50.4-.33 6.316-5.77 11.876-7.2 17.6zm-83.2 20c-3.372 18.575 26.722 21.105 43.2 18.4 4.097-.673 11.218-3.28 12-8.8 1.918-13.51-29.692-21.322-44.8-18.4-5.613 1.086-9.727 5.098-10.4 8.8zm373.6 76.8c-10.024 20.643-15.094 50.504-15.2 78.4 4.148-19.73 14.17-37.427 24-52.8 3.43-5.364 8.64-10.13 9.6-16.8-4.997-4.07-11.803-6.33-18.4-8.8zm26.4 104.8c-.103-3.045-9.505-2.53-13.6-4-10.115-3.636-14.55-12.142-21.6-18.4-4.883 4.817-9.976 11.58-10.4 21.6-.447 10.53 2.537 31.5 8.8 36 8.004 5.752 26.546 2.124 40.8 4 9.65-3.89 14.344-33.413 2.4-35.2-5.816-.87-14.503 8.57-12 16 3.087 3 6.737-1.975 8.8 0 2.867 17.562-20.282 2.574-12-8.8-.034-1.1.377-1.756.8-2.4a45.207 45.207 0 0 0 8-8v-.8zm-140.8 39.2c-28.727-1.14-52.06-11.94-70.4-20.8-.488.044-.947.118-.8.8-1.846 2.42-.282 8.25-.8 12-3.808 67.392-20.662 121.736-22.4 191.2-1.124 8.476-.684 18.516-1.6 27.2 12.914 13.973 50.7 14.875 70.4 6.398 5.005-39.916 10.122-81.36 20.8-117.6 3.136-10.64 11.893-26.143 11.2-35.2-.552-7.217-9.595-12.595-5.6-20 .045.49.12.947.8.8 23.884 40.29 50.17 90.908 66.4 142.4 4.655 14.77 13.17 45.406 31.2 45.6 1.37 1.83 6.106.295 8.8.8h8c12.54-.526 23.94-2.192 31.2-8 2.026-84.075-24.083-149.082-47.2-208.8-3.354-8.664-5.474-18.74-12-25.6-16.24 1.63-34.647 8.018-54.4 8.8h-2.4c-2.43.502-6.89-1.024-8 .8h-15.2c-1.11-1.823-5.568-.297-8-.798z"/><path fill="#F8BDA7" d="M280.015 18.456c1.902-1.328 9.297-1.328 11.2 0h-11.2z"/><path fill="#030303" d="M256.015 81.656c-4.412 2.522-11.525 2.342-15.2 5.6 2.348-4.444 11.132-12.667 15.2-5.6zM328.014 97.656c-4.513-5.354-10.002-9.73-16-13.6 6.47-10.345 15.186 5.623 16 13.6zM247.214 103.256c2.343 6.48 2.14 16.836-3.2 20-9.235-1.878-5.457-19.87 3.2-20zM266.415 152.856c-7.91 1.663-12.632-8.073-12-13.6 1.283-11.22 22.347-21.456 23.2-32.8 2.71 12.534-15.426 22.113-16 32.8-.328 6.086 6 7.206 4.8 13.6zM323.214 127.256c-9.438-3.363-14.767-10.833-24.8-13.6 9.02-9.45 28.03-1.674 24.8 13.6zM368.014 145.656c-4.77-5.362-10.134-10.132-13.6-16.8 6.533.483 11.57 9.172 13.6 16.8z"/><path fill="#3566B0" d="M214.415 139.256v17.6c-1.332-4.016-1.332-13.584 0-17.6z"/><path fill="#030303" d="M359.214 150.456c-2.86-2.473-5.094-5.573-6.4-9.6 5.274-.457 8.24 5.606 6.4 9.6zM234.415 177.656c-3.86-1.192-1.66 3.672-4.8 3.2-1.625-3.976-3.722-7.478-4.8-12 1.94-3.66 4.84-6.36 7.2-9.6 2.515 1.115-1.1 3.948.8 4.8 14.557 12.848 50.664 8.545 65.6-.8 2.104-2.504-.588-5.335-.8-8 6.557 3.043 10.94 8.258 16 12.8.89 8.622-2.358 13.107-4.8 18.4-2.02-2.1 1.973-7.844-1.6-9.6-13.686 4.223-27.787 17.078-45.6 15.2-11.466-1.21-17.61-8.268-26.4-13.6 16.817 11.108 57.052 10.53 68.8-7.2.378-2.512-2.154-2.114-2.4-4-21.244 5.42-46.02 10.595-69.6 1.6-3.43 3.82 3.65 7.248 2.4 8.8z"/><path fill="#F6EE97" d="M65.615 168.056c.533 3.73-.437 7.345-.8 4.8-.148-1.026.29-8.372.8-4.8z"/><path fill="#030303" d="M268.015 196.856c.282 1.05 1.41 1.258 1.6 2.4-2.2 6.794-15.406 3.935-16.8-1.6 4.247 1.86 11.724.71 15.2-.8z"/><path fill="#3566B0" d="M28.814 224.856c1.64-1.327 8.76-1.327 10.4 0h-10.4zM173.615 229.656c1.893-1.84 7.18-.286 10.4-.8-1.894 1.84-7.18.287-10.4.8zM283.214 239.256c2.66.806 8.703-1.77 8.8 1.6h-.8c-.862-2.337-7.137.737-8-1.6zM292.814 253.656c-.862 1.324-7.137 1.324-8 0h8z"/><path fill="#F8BDA7" d="M185.615 335.256v10.4h-.8c.513-3.22-1.04-8.507.8-10.4z"/><path fill="#3566B0" d="M191.214 336.056v34.4c-1.332-9.605-1.332-24.795 0-34.4z"/><path fill="#F8BDA7" d="M184.814 353.656h.8v12c-1.845-2.42-.28-8.252-.8-12z"/><path fill="#3566B0" d="M227.214 369.656c-.516 3.484 1.043 9.043-.8 11.2.517-3.484-1.043-9.044.8-11.2zM273.615 412.856c.506-2.694-1.03-7.432.8-8.8-.507 2.693 1.03 7.43-.8 8.8zM296.015 420.056h12.8c-2.43 1.33-10.372 1.33-12.8 0zM358.415 452.056c-1.327-1.64-1.327-8.76 0-10.4v10.4z"/><path fill="#F8BDA7" d="M188.015 446.456h.8v38.4h-.8v-38.4z"/><path fill="#3566B0" d="M200.015 468.856c-.518 3.748 1.046 9.58-.8 12 .517-3.75-1.047-9.58.8-12zM271.214 488.856c2.432.5 6.89-1.025 8 .8-2.43-.502-6.89 1.025-8-.8zM294.415 489.655c1.11-1.824 5.57-.298 8-.8-1.11 1.826-5.57.3-8 .8zM370.415 721.655c2.693.507 7.43-1.03 8.8.8-2.694-.505-7.43 1.03-8.8-.8z"/><path fill="#F8BDA7" d="M255.214 69.656c4.99-5.944 10.003-11.863 16-16.8 8.298-2.48 12.34 5.087 20 5.6 6.085.408 10.297-4.123 16-4.8 11.774-1.398 17.792 6.238 24.8 15.2.93-.13 1.424.177 1.6.8 9.132.92 14.768-4.49 24-3.2 18.04 2.52 15.128 23.437-.8 29.6 9.274 10.742 25.098 19.148 22.4 39.2-4.342-9.524-8.565-19.167-15.2-26.4 1.152.448 1.953 1.248 2.4 2.4.848-1.362-8.67-10.362-7.2-7.2-1.184-.927-2.017-.927-3.2 0 7.78 12.486 19.72 20.814 21.6 39.2-5.275-6.458-7.962-15.504-13.6-21.6.713.355 1.432.703 1.6 1.6 1.09-1.15-8.103-9.75-6.4-6.4-1.543-1.556-4.895-.837-4 2.4h-.8c2.307 2.638 9.923 11.382 9.6 8.8 4.673 5.195 9.07 10.664 10.4 19.2.77 2.903-3.594.672-3.2 3.2 9.49 14.62 3.855 38.396-18.398 35.2-4.883 5.25-7.976 12.292-13.6 16.8.447-1.152 1.247-1.953 2.4-2.4-3.262.75-7.94 6.985-11.2 10.4 1.63-.236 1.567-2.165 3.2-2.4-5.862 5.872-12.256 11.212-20 15.2 6.31 3.093 11.314-2.005 16-3.2.313 5.115-2.593 7.01-4.8 9.6.807-2.985-6.196 5.004-8 7.2.71-.354 1.43-.702 1.6-1.6h.8c-7.296 6.838-16.536 11.732-29.6 12.8.247-1.086 2.002-.664 3.2-.8-1.37-1.83-6.107-.293-8.8-.8-.573 2.172 3.77-.572 3.2 1.6-4.16-.11-7.697-.837-9.6-3.2-.813-3.745 6.01.143 6.4-2.4 3.18.248 4.018-1.848 7.2-1.6h.8c-.1-3.37-6.14-.794-8.8-1.6-34.397-3.458-69.094-39.967-68.8-82.4v-17.6c2.868-26.197 11.77-46.364 24.8-62.4 6.842.71 9.884-2.382 13.6-4.8-.355.712-.703 1.43-1.6 1.6 2.442.485 12.108-11.615 3.998-4zm-16 144c-2.745.074 6.986 7.03 8.8 10.4 2.745-.074-6.986-7.03-8.8-10.4zm1.6-126.4c3.675-3.258 10.79-3.078 15.2-5.6-4.067-7.067-12.85 1.156-15.2 5.6zm71.2-3.2c5.998 3.87 11.487 8.246 16 13.6-.814-7.977-9.53-23.945-16-13.6zm-68 39.2c5.342-3.164 5.544-13.52 3.2-20-8.657.13-12.435 18.122-3.2 20zm17.6 16c.575-10.687 18.712-20.266 16-32.8-.853 11.344-21.916 21.58-23.2 32.8-.63 5.527 4.09 15.263 12 13.6 1.202-6.394-5.127-7.514-4.8-13.6zm36.8-25.6c10.034 2.768 15.363 10.237 24.8 13.6 3.23-15.274-15.78-23.05-24.8-13.6zm56 15.2c3.467 6.668 8.83 11.438 13.6 16.8-2.03-7.628-7.067-16.317-13.6-16.8zm-1.6 12c1.307 4.027 3.54 7.127 6.4 9.6 1.84-3.994-1.126-10.057-6.4-9.6zm-117.6 37.6c8.792 5.332 14.936 12.39 26.4 13.6 17.814 1.878 31.915-10.978 45.6-15.2 3.573 1.756-.418 7.5 1.6 9.6 2.442-5.292 5.69-9.778 4.8-18.4-5.058-4.542-9.442-9.757-16-12.8.212 2.665 2.905 5.496.8 8-14.935 9.345-51.042 13.648-65.6.8-1.9-.852 1.716-3.685-.8-4.8-2.36 3.24-5.258 5.94-7.2 9.6 1.08 4.522 3.177 8.024 4.8 12 3.14.472.942-4.392 4.8-3.2.046.488.12.947.8.8zm17.6 19.2c1.395 5.535 14.6 8.394 16.8 1.6-.19-1.142-1.318-1.35-1.6-2.4-3.475 1.51-10.952 2.66-15.2.8z"/><path fill="#3566B0" d="M277.615 244.856c-2.862-2.657 3.698-2.656 6.4-2.4-.39 2.543-7.213-1.345-6.4 2.4z"/><path fill="#F6EE97" d="M359.214 104.056c-1.47-3.162 8.048 5.838 7.2 7.2-.447-1.152-1.248-1.952-2.4-2.4a16.258 16.258 0 0 1-4.8-4.8zM359.214 116.856c-1.704-3.35 7.49 5.25 6.4 6.4-.17-.897-.888-1.245-1.6-1.6a16.266 16.266 0 0 1-4.8-4.8zM364.014 128.056c.322 2.582-7.294-6.163-9.6-8.8h.8a54.583 54.583 0 0 1 8.8 8.8zM333.615 208.056c-1.632.235-1.57 2.164-3.2 2.4 3.26-3.415 7.94-9.648 11.2-10.4-1.152.447-1.952 1.248-2.4 2.4a22.128 22.128 0 0 1-5.6 5.6zM319.214 235.256h-.8c-.17.898-.888 1.246-1.6 1.6 1.805-2.196 8.808-10.185 8-7.2a22.128 22.128 0 0 1-5.6 5.6zM248.015 224.056c-1.814-3.372-11.545-10.326-8.8-10.4 1.813 3.37 11.544 10.326 8.8 10.4zM255.214 69.656c8.11-7.615-1.557 4.485-4 4 .898-.17 1.246-.888 1.6-1.6.448-1.152 1.248-1.952 2.4-2.4zM233.615 78.456c-3.804 3.663-5.122 9.81-8.8 13.6-7.666-2.1-6.854-18.307-1.6-22.4 4.763 1.637 8.445 4.355 10.4 8.8z"/><path fill="#F8BDA7" d="M68.015 203.256c-6.97-3.964-13.116-8.75-22.4-10.4-14.967-19.997-10.102-65.112 19.2-63.2 3.218.21 4.682 2.74 7.2 5.6.956 17.474-10.592 31.654-3.2 48-1.8 1.642 7.45 9.806 5.6 6.4 11.165 7.218 24.877 26.796 22.4 44.8-1.233 8.967-6.587 12.073-11.2 20 1.756 2.738 3.28-3.9 5.6-.8-1.2 24.795-16.212 42.62-40.8 43.2-6.784.16-19.452-.118-21.6-7.2 21.44 3.932 55.483-1.223 42.4-24 9.47-6.77 6.37-23.39-.8-30.4 7.505-2.794 8.77-16.594 4.8-24 1.397-2.145-8.635-10.978-7.2-8zm-3.2-30.4c.363 2.545 1.332-1.07.8-4.8-.51-3.572-.948 3.774-.8 4.8z"/><path fill="#F6EE97" d="M74.415 189.656c1.85 3.406-7.4-4.758-5.6-6.4 1.613 2.386 4.052 3.947 5.6 6.4zM68.015 203.256c-1.435-2.978 8.598 5.855 7.2 8-2.073-2.994-5.17-4.964-7.2-8z"/><path fill="#F8BDA7" d="M28.814 224.856c-6 .668-12.292 1.04-16.8 3.2-6.246-3.428-10.188-17.064-3.2-22.4-2.66 4.505 7.705-5.86 3.2-3.2 20.536-14.823 70.68-.938 56.8 28-.93-.13-1.423.176-1.6.8-10.987-.48-16.607-6.326-28-6.4-1.64-1.327-8.76-1.327-10.4 0z"/><path fill="#F6EE97" d="M12.015 202.456c4.505-2.66-5.86 7.705-3.2 3.2a7.2 7.2 0 0 1 3.2-3.2z"/><path fill="#2DA0D9" d="M112.015 248.056c.102-10.77-4.284-17.05-6.4-25.6 17.07 4.812 42.337 8.318 68 7.2 3.22-.513 8.506 1.04 10.4-.8 17.85-.335 36.55-3.912 52-4 .74 8.354-3.468 11.763-2.4 22.4.98 9.76 8.61 15.062 9.6 22.4.856 6.355-3.77 16.34-5.6 24-5.643 23.617-8.873 48.074-10.4 76-1.843 2.157-.284 7.716-.8 11.2v24c-13.18-2.82-24.405-7.595-33.6-14.4-2.03-5.17-1.587-12.81-1.6-20v-34.4c-.712-20.728 4.13-44.382 4.8-58.4-25.6-9.072-73.967-2.295-84-29.6z"/><path fill="#3566B0" d="M112.015 248.056c10.034 27.305 58.4 20.528 84 29.6-9.034 13.603-34.235 16.164-56.8 20.8-17.873 3.672-37.34 6.19-55.2 4 1.99-5.287 8.23-6.628 12-10.4 9.208-9.208 16.452-25.7 16-44zM337.615 268.056a45.174 45.174 0 0 1 8-8 45.24 45.24 0 0 1-8 8zM350.415 323.256c6.634 7.767 17.763 11.038 25.6 17.6-6.628 20.572-11.884 42.516-15.2 66.4-12.844 7.155-29.566 10.433-47.2 12.8.248-1.086 2.004-.664 3.2-.8 8.848-34.352 19.368-67.032 33.6-96zM468.014 331.256c13.984 22.326-4.794 49.472-16 69.6-9.016 16.196-17.984 31.806-27.2 41.6-28.92 2.34-52.35-16.978-40.8-42.4 45.172 20.684 68.52-40.527 84-68.8z"/><path fill="#2DA0D9" d="M345.615 260.056c7.527-9.273 12.827-20.773 16.8-33.6 48.087 22.047 77.557 62.71 105.6 104.8-15.48 28.273-38.828 89.484-84 68.8 7.676-18.457 19.246-33.02 30.4-48-23.94-7.26-43.467-18.934-62.4-31.2-.984.35-1.643 1.024-1.6 2.4-14.23 28.968-24.752 61.648-33.6 96-1.197.136-2.953-.286-3.2.8h-17.6c-15.595 3.27-17.6-9.71-17.6-24 0-35.988 7.045-86.726 16.8-112 17.574-1.893 31.4-7.533 42.4-16a45.24 45.24 0 0 0 8-8z"/><path fill="#F8BDA7" d="M12.814 256.856c-32.547-40.636 61.43-33.494 60.8-4.8-.332 15.083-13.853 7.27-24.8 4.8-13.142-2.966-22.84-2.9-36 0z"/><path fill="#F8BDA7" d="M22.415 259.256c15.107-2.922 46.716 4.89 44.8 18.4-.783 5.52-7.904 8.127-12 8.8-16.48 2.706-46.572.175-43.2-18.4.672-3.702 4.786-7.714 10.4-8.8zM403.214 460.856c-8.282 11.373 14.867 26.36 12 8.8-2.062-1.976-5.713 3-8.8 0-2.503-7.43 6.184-16.87 12-16 11.943 1.786 7.25 31.31-2.4 35.2-14.254-1.877-32.796 1.75-40.8-4-6.263-4.5-9.247-25.47-8.8-36 .425-10.02 5.518-16.783 10.4-21.6 7.05 6.258 11.484 14.764 21.6 18.398 4.095 1.472 13.497.956 13.6 4-.264-.475-12.5 10.52-8.8 11.202z"/><path fill="#3566B0" d="M404.014 458.456c2.332-3.002 5-5.67 8-8a45.207 45.207 0 0 1-8 8z"/><path fill="#F6EE97" d="M403.214 460.856c-3.7-.684 8.536-11.678 8.8-11.2v.8c-3 2.33-5.668 4.998-8 8-.423.644-.834 1.3-.8 2.4z"/><path fill="#3566B0" d="M272.814 533.655c-.68.147-.754-.31-.8-.8-3.995 7.405 5.048 12.783 5.6 20 .692 9.058-8.064 24.56-11.2 35.2-10.678 36.238-15.795 77.684-20.8 117.6-19.7 8.477-57.487 7.574-70.4-6.4.917-8.683.476-18.723 1.6-27.2 23.582-.974 30.547-19.604 40.8-37.6 13.37-23.462 20.157-46.202 34.4-71.2 4.544-7.975 15.176-30.02 20.8-30.398-.018 0 .015.744 0 .798zM304.815 488.856c19.752-.783 38.16-7.172 54.4-8.8 6.525 6.858 8.645 16.935 12 25.6 23.116 59.717 49.226 124.724 47.2 208.8-7.262 5.807-18.662 7.473-31.2 8 .595-1.805 4.486-.312 6.4-.8-29.16-74.843-70.872-144.06-88.8-232.8z"/><path fill="#2DA0D9" d="M200.015 468.856c-.147-.682.312-.756.8-.8 18.34 8.86 41.673 19.66 70.4 20.8 1.11 1.824 5.568.298 8 .8h15.2c2.43-.502 6.89 1.024 8-.8h2.4c17.928 88.74 59.64 157.957 88.8 232.8-1.913.487-5.805-1.005-6.4.8h-8c-1.37-1.83-6.106-.294-8.8-.8-18.03-.194-26.545-30.83-31.2-45.6-16.23-51.493-42.516-102.11-66.4-142.4.015-.056-.018-.8 0-.8-5.624.38-16.255 22.424-20.8 30.4-14.243 24.996-21.03 47.736-34.4 71.2-10.253 17.993-17.22 36.624-40.8 37.6 1.738-69.464 18.592-123.81 22.4-191.2 1.846-2.42.282-8.252.8-12z"/><path fill="#F6EE97" d="M287.214 248.056c.572-2.172-3.772.572-3.2-1.6 2.693.506 7.43-1.03 8.8.8-1.197.136-2.952-.286-3.2.8h-2.4z"/><path fill="#2DA0D9" d="M184.814 353.656v-8h.8v8h-.8z"/><path fill="#3566B0" d="M188.015 435.256c1.843 2.156.284 7.716.8 11.2h-.8v-11.2z"/><path fill="#F8BDA7" d="M285.615 480.856c4.81-1.86 13.06-.273 19.2-.8-4.81 1.857-13.06.273-19.2.8z"/><path fill="#3566B0" d="M188.814 484.856c-.502 2.43 1.024 6.89-.8 8v-8h.8z"/><path fill="#FFF" d="M234.415 177.656c1.25-1.55-5.828-4.98-2.4-8.8 23.58 8.995 48.356 3.82 69.6-1.6.247 1.886 2.778 1.488 2.4 4-11.748 17.73-51.982 18.308-68.8 7.2-.68.147-.755-.312-.8-.8zM102.415 230.456c8.288 13.116 4.845 35.784-4 50.4-7.202 11.9-16.793 23.414-30.4 18.4 1.565-5.015 5.305-4.295 8-6.4 8.658-6.762 14.776-17.084 17.6-28 1.25-4.833.116-10.86 1.6-16.8 1.43-5.724 6.87-11.284 7.2-17.6z"/><path fill="#F6EE97" d="M384.014 129.656c-4.185-13.415-9.603-25.597-20.8-32 10.756-6.933 21.288-23.037 8.8-33.6-1.7-1.438-5.96-2.973-8.8-3.2-8.03-.643-16.8 7.396-23.2 6.4-10.035-1.56-10.13-20.432-21.6-22.4-10.318-1.77-16.178 10.45-26.4 10.4-4.62-.023-9.066-5.812-14.4-6.4-19.4-2.137-22.047 24.903-37.6 25.6-19.72.883-24.034-34.652-7.2-44-.157 3.09-.028 5.895.8 8 22.7 16.828 30.014-15.71 47.2-16.8 6.345-.402 9.945 4.41 16 4 11.425-.77 13.588-21.242 27.2-20 6.66.608 12.002 10.604 21.6 14.4 9.713 3.84 16.115 2.91 21.6 12 1.85 3.063 2.888 8.358 4.8 11.2 7.79 11.568 20.17 16.337 22.4 34.4 2.643 21.395-3.08 36.025-10.4 52zM292.814 253.656c25.583-2.684 35.56-20.973 45.6-39.2 7.005 1.795 12.53 5.07 18.4 8-4.005 25.633-18.416 40.952-39.2 50.4-7.187 3.267-22.477 4.92-27.2 9.6-4.344 4.303-5.704 18.086-7.2 27.2-4.876 29.7-7.61 62.154-8.8 94.4-1.83 1.37-.293 6.106-.8 8.8-.75 10.558 12.062 12.028 23.2 12 21.083-.053 49.832-7.683 63.2-10.4-.146 9.454-2.136 17.065-1.6 27.2-1.327 1.64-1.327 8.76 0 10.4-1.103 6.185 1.924 12.457 0 16.8-11.97 9.63-33.295 9.905-53.6 11.2-6.14.527-14.392-1.06-19.2.8h-4.8c-4.81-1.858-13.06-.272-19.2-.8-13.29-.176-25.213-3.453-37.6-8.8-8.574-3.7-22.266-8.696-25.6-15.2-3.437-6.705-3.25-18.986-4-28.8-.76-9.95-1.057-20.31-.8-29.6 11.763 3.463 20.277 14.353 35.2 12 1.938-.462 1.78-3.022 2.4-4.8 1.86-5.074.273-13.594.8-20 1.043-32.07 4.48-60.648 10.4-89.6 1.7-8.313 6.958-19.556 6.4-26.4-.842-10.334-21.766-24.434-6.4-40 10.932-1.642 12.13 10.455 18.4 16 6.394 5.652 13.955 6.552 24 8.8.863 1.324 7.138 1.324 8 0z"/><path fill="#F8BDA7" d="M232.015 384.856c-.527 6.406 1.06 14.926-.8 20 .527-6.406-1.06-14.925.8-20zM261.615 480.056c6.14.527 14.39-1.06 19.2.8-6.14-.527-14.392 1.057-19.2-.8z"/></g></svg>